
		<svg xmlns="http://www.w3.org/2000/svg" xmlns:xlink="http://www.w3.org/1999/xlink" version="1.1" width="3123.96694214876" height="824.3801652892563">
			
			<g transform="scale(6.198347107438017) translate(10, 10)">
				<defs id="SvgjsDefs3284"></defs><g id="SvgjsG3285" featureKey="root" fill="#ffffff"></g><g id="SvgjsG3286" featureKey="container1" fill="#ffffff" transform="matrix(1.125,0,0,1.125,0,0)"><circle xmlns="http://www.w3.org/2000/svg" cx="50" cy="50" r="50"></circle></g><g id="SvgjsG3287" featureKey="symbol1" fill="#45bd99" transform="matrix(0.7777734921538467,0,0,0.7777734921538467,17.11132687579287,17.06291073996666)"><g id="SvgjsG3288"><g xmlns="http://www.w3.org/2000/svg"><g><path d="M53.935,12.501L17.941,48.496c-0.793,0.793-0.793,2.079,0,2.873l36.017,36.017l-7.553,7.553L7.546,56.079    c-3.395-3.395-3.395-8.899,0-12.294L46.269,5.062L53.935,12.501z"></path><path d="M64.763,68.686l17.296-17.296c0.793-0.793,0.793-2.079,0-2.873L64.712,31.171l7.553-7.553l20.189,20.189    c3.395,3.395,3.395,8.899,0,12.294L72.43,76.126L64.763,68.686z"></path></g></g></g></g><g id="SvgjsG3289" featureKey="text1" fill="#000000" transform="matrix(3.162302245059179,0,0,3.162302245059179,127.94031821738918,2.0094404110651887)"><path d="M10.9 22.7 l0 1.3 l-5.8 0 c-2.1 0 -3.5 -1.4 -3.5 -3.3 l0 -7.4 c0 -1.9 1.4 -3.3 3.5 -3.3 l5.8 0 l0 0.9 l-0.4 0.4 l-5.4 0 c-1.1 0 -2 0.9 -2 2 l0 7.4 c0 1.1 0.9 2 2 2 l5.8 0 z M13.2 20.9 l0 -7.8 c0 -1.9 1.4 -3.3 3.5 -3.3 l3.5 0 c2.1 0 3.5 1.4 3.5 3.3 l0 7.8 c0 1.9 -1.4 3.3 -3.5 3.3 l-3.5 0 c-2.1 0 -3.5 -1.4 -3.5 -3.3 z M22.2 20.9 l0 -7.8 c0 -1.1 -0.9 -2 -2 -2 l-3.5 0 c-1.1 0 -2 0.9 -2 2 l0 7.8 c0 1.1 0.9 2 2 2 l3.5 0 c1.1 0 2 -0.9 2 -2 z M35.5 24 l-6.8 -11.5 l-0.1 0 l0.2 2.6 l0 8.9 l-1.5 0 l0 -14 l1.6 0 l6.8 11.5 l0.1 0 l-0.2 -2.6 l0 -8.9 l1.5 0 l0 14 l-1.6 0 z M45.2 11.3 l0 12.7 l-1.5 0 l0 -12.7 l-4.4 0 l0 -1.3 l10.3 0 l0 0.9 l-0.4 0.4 l-4 0 z M52.800000000000004 20.4 l-1.2 3.6 l-1.5 0 l0 -0.6 l4.9 -13.4 l1.7 0 l4.9 13.4 l0 0.6 l-1.5 0 l-1.2 -3.6 l-6.1 0 z M58.400000000000006 19.1 l-2.5 -7.3 l-0.1 0 l-2.5 7.3 l5.1 0 z M68.30000000000001 19.7 l0 4.3 l-1.5 0 l0 -4.3 l-4.7 -9.1 l0 -0.6 l1.5 0 l3.9 8.1 l0.1 0 l3.9 -8.1 l1.5 0 l0 0.6 z M83.4 24 l-6.8 -11.5 l-0.1 0 l0.2 2.6 l0 8.9 l-1.5 0 l0 -14 l1.6 0 l6.8 11.5 l0.1 0 l-0.2 -2.6 l0 -8.9 l1.5 0 l0 14 l-1.6 0 z M88.6 20.9 l0 -7.8 c0 -1.9 1.4 -3.3 3.5 -3.3 l3.5 0 c2.1 0 3.5 1.4 3.5 3.3 l0 7.8 c0 1.9 -1.4 3.3 -3.5 3.3 l-3.5 0 c-2.1 0 -3.5 -1.4 -3.5 -3.3 z M97.6 20.9 l0 -7.8 c0 -1.1 -0.9 -2 -2 -2 l-3.5 0 c-1.1 0 -2 0.9 -2 2 l0 7.8 c0 1.1 0.9 2 2 2 l3.5 0 c1.1 0 2 -0.9 2 -2 z M104.2 24 l-1.5 0 l0 -14 l6.2 0 c2.1 0 3.5 1.4 3.5 3.3 l0 1.9 c0 2.8 -2.7 3.2 -2.7 3.2 l3.1 5 l0 0.6 l-1.5 0 l-3.1 -5.5 l-4 0 l0 5.5 z M108.9 11.3 l-4.7 0 l0 5.9 l4.7 0 c1.1 0 2 -0.9 2 -2 l0 -1.9 c0 -1.1 -0.9 -2 -2 -2 z"></path></g>
			</g>
		</svg>
	